<?xml version="1.0" encoding="utf-8"?>
<!-- Generator: Adobe Illustrator 19.0.0, SVG Export Plug-In . SVG Version: 6.00 Build 0)  -->
<svg version="1.1" id="图层_1" xmlns="http://www.w3.org/2000/svg" xmlns:xlink="http://www.w3.org/1999/xlink" x="0px" y="0px"
	 viewBox="-291 413.9 12 14" style="enable-background:new -291 413.9 12 14;" xml:space="preserve">
<title>姓名 copy</title>
<desc>Created with Sketch.</desc>
<defs>
	<filter id="Adobe_OpacityMaskFilter" filterUnits="userSpaceOnUse" x="-290.8" y="413.9" width="11.6" height="14">
		<feColorMatrix  type="matrix" values="1 0 0 0 0  0 1 0 0 0  0 0 1 0 0  0 0 0 1 0"/>
	</filter>
</defs>
<mask maskUnits="userSpaceOnUse" x="-290.8" y="413.9" width="11.6" height="14" id="mask-2_1_">
	<g style="filter:url(#Adobe_OpacityMaskFilter);">
		<rect id="path-1_1_" x="-294.8" y="411" style="fill:#FFFFFF;" width="20" height="20"/>
	</g>
</mask>
<path id="Fill-1" style="mask:url(#mask-2_1_);fill:#6691F9;" d="M-285,415.1L-285,415.1c-1.4,0-2.7,0.9-3.3,2.2
	c-0.2,0.4-0.3,0.9-0.3,1.4c0,1.4,0.8,2.7,2.1,3.2c0.9,0.4,1.9,0.4,2.7,0c1.3-0.6,2.2-1.8,2.2-3.2C-281.5,416.7-283,415.1-285,415.1
	 M-282.7,422.5L-282.7,422.5c0.1,0,0.3,0,0.4,0.1c0.2,0,0.5,0.1,0.7,0.2c1.4,0.6,2.4,2,2.4,3.6v1c0,0.3-0.2,0.5-0.5,0.5l0,0h-10.6
	c-0.3,0-0.5-0.2-0.5-0.5l0,0v-1c0-1.5,0.9-3,2.4-3.6c0.4-0.1,0.7-0.2,1.1-0.3c-1.4-0.8-2.3-2.3-2.3-4c0-2.5,2.1-4.6,4.6-4.6
	s4.6,2.1,4.6,4.6C-280.4,420.2-281.3,421.7-282.7,422.5 M-283,423.6h-4c-0.4,0-0.7,0.1-1.1,0.2c-1,0.4-1.7,1.5-1.7,2.6v0.4h9.6v-0.4
	c0-0.9-0.5-1.8-1.2-2.3c-0.1-0.1-0.3-0.2-0.5-0.3c-0.2-0.1-0.3-0.1-0.5-0.2C-282.6,423.6-282.8,423.6-283,423.6"/>
</svg>
